<svg width="500" height="500" viewBox="0 0 500 500" fill="none" xmlns="http://www.w3.org/2000/svg">
<path d="M139 86.0934C132.434 86.0934 125.932 87.3867 119.866 89.8994C113.8 92.4122 108.288 96.0951 103.645 100.738C99.0017 105.381 95.3188 110.893 92.806 116.959C90.2933 123.026 89 129.527 89 136.093C89 142.659 90.2933 149.161 92.806 155.228C95.3188 161.294 99.0017 166.806 103.645 171.449C108.288 176.092 113.8 179.775 119.866 182.287C125.932 184.8 132.434 186.093 139 186.093L139 136.093L139 86.0934Z" fill="#1960D4"/>
<circle cx="361" cy="136.093" r="50" fill="#1960D4"/>
<circle opacity="0.83" cx="139" cy="136.093" r="50" fill="#3B82F6"/>
<rect x="138" y="86.0934" width="223" height="100" fill="#1960D4"/>
<path opacity="0.83" d="M138 86.0934H169C169 86.0934 191.5 85.5479 200 87.0934V186.093H138V86.0934Z" fill="#3B82F6"/>
<path opacity="0.83" d="M200 292.093V87.0934C200 87.0934 300 89.7329 300 202.791V292.093H200Z" fill="#3B82F6"/>
<rect x="200" y="364.093" width="72" height="100" transform="rotate(-90 200 364.093)" fill="#3B82F6"/>
<ellipse cx="250.166" cy="363.84" rx="49.5" ry="49.9211" transform="rotate(90.2842 250.166 363.84)" fill="#3B82F6"/>
<path d="M299.19 186.093C301 192.593 300.244 291.093 300.244 291.093H200V186.093L299.19 186.093Z" fill="#3B82F6"/>
<ellipse cx="268.297" cy="291.593" rx="62.1982" ry="60.9893" transform="rotate(90.2842 268.297 291.593)" fill="#3B82F6"/>
<path d="M267.499 340.333C240.714 340.2 219.108 318.378 219.241 291.593C219.373 264.807 241.195 243.201 267.981 243.334C294.766 243.467 316.372 265.288 316.239 292.074C316.107 318.859 294.285 340.466 267.499 340.333Z" fill="#1960D4"/>
<path d="M167 186.093H200V211.093C200 211.093 202.5 199.379 194 192.093C185.5 184.808 167 186.093 167 186.093Z" fill="#3B82F6"/>
</svg>  
