<svg width="500" height="500" viewBox="0 0 500 500" fill="none" xmlns="http://www.w3.org/2000/svg">
<g clip-path="url(#clip0_88_2)">
<rect x="214.391" y="186.733" width="142" height="222" rx="12" transform="rotate(33.1338 214.391 186.733)" stroke="#1057CB" stroke-width="8"/>
<path d="M359.433 101.206L383.7 326.209C384.044 329.398 380.275 331.331 377.885 329.192L270.786 233.305C270.446 233.001 270.061 232.75 269.646 232.561L138.763 173.109C135.843 171.783 136.097 167.555 139.154 166.586L354.896 98.2447C357.004 97.5769 359.196 99.0073 359.433 101.206Z" fill="#3B82F6" stroke="#3B82F6"/>
<path d="M375.673 76.3175L407.93 370.051C408.28 373.241 404.51 375.182 402.118 373.042L262.505 248.194C261.563 247.352 260.499 246.657 259.349 246.134L88.8686 168.574C85.9473 167.245 86.206 163.013 89.2675 162.05L371.144 73.3609C373.248 72.6989 375.432 74.1248 375.673 76.3175Z" stroke="#1057CB" stroke-width="9"/>
<rect x="230.121" y="192.821" width="111" height="210" rx="5.5" transform="rotate(33.1338 230.121 192.821)" fill="#3B82F6" stroke="#3B82F6"/>
</g>
<defs>
<clipPath id="clip0_88_2">
<rect width="500" height="500" fill="white"/>
</clipPath>
</defs>
</svg>
