<svg width="1631" height="358" viewBox="0 0 1631 358" fill="none" xmlns="http://www.w3.org/2000/svg">
<g clip-path="url(#clip0_78_2)">
<path d="M65 15.0934C58.4339 15.0934 51.9321 16.3867 45.8658 18.8994C39.7995 21.4121 34.2876 25.0951 29.6447 29.738C25.0017 34.381 21.3188 39.8929 18.806 45.9592C16.2933 52.0255 15 58.5273 15 65.0934C15 71.6595 16.2933 78.1613 18.806 84.2276C21.3188 90.2938 25.0017 95.8058 29.6447 100.449C34.2876 105.092 39.7996 108.775 45.8658 111.287C51.9321 113.8 58.4339 115.093 65 115.093L65 65.0934L65 15.0934Z" fill="#1960D4"/>
<circle cx="287" cy="65.0934" r="50" fill="#1960D4"/>
<circle opacity="0.83" cx="65" cy="65.0934" r="50" fill="#3B82F6"/>
<rect x="64" y="15.0934" width="223" height="100" fill="#1960D4"/>
<path opacity="0.83" d="M64 15.0934H95C95 15.0934 117.5 14.5479 126 16.0934V115.093H64V15.0934Z" fill="#3B82F6"/>
<path opacity="0.83" d="M126 221.093L126 16.0934C126 16.0934 226 18.7329 226 131.791V221.093H126Z" fill="#3B82F6"/>
<rect x="126" y="293.093" width="72" height="100" transform="rotate(-90 126 293.093)" fill="#3B82F6"/>
<ellipse cx="176.166" cy="292.84" rx="49.5" ry="49.9211" transform="rotate(90.2842 176.166 292.84)" fill="#3B82F6"/>
<path d="M225.19 115.093C227 121.593 226.244 220.093 226.244 220.093H126L126 115.093L225.19 115.093Z" fill="#3B82F6"/>
<ellipse cx="194.297" cy="220.593" rx="62.1982" ry="60.9893" transform="rotate(90.2842 194.297 220.593)" fill="#3B82F6"/>
<path d="M193.499 269.333C166.714 269.2 145.108 247.378 145.241 220.593C145.373 193.807 167.195 172.201 193.981 172.334C220.766 172.467 242.372 194.288 242.239 221.074C242.107 247.859 220.285 269.466 193.499 269.333Z" fill="#1960D4"/>
<path d="M93 115.093H126V140.093C126 140.093 128.5 128.379 120 121.093C111.5 113.808 93 115.093 93 115.093Z" fill="#3B82F6"/>
<path d="M413.205 104.212V67.5454H605.849V104.212H531.22V309H487.834V104.212H413.205ZM622.296 309V127.909H663.678V158.091H665.565C668.866 147.637 674.525 139.581 682.542 133.922C690.638 128.184 699.873 125.315 710.248 125.315C712.606 125.315 715.239 125.433 718.147 125.669C721.134 125.826 723.61 126.101 725.575 126.494V165.754C723.767 165.125 720.898 164.575 716.968 164.104C713.117 163.553 709.383 163.278 705.768 163.278C697.987 163.278 690.991 164.968 684.782 168.348C678.651 171.649 673.817 176.247 670.281 182.142C666.744 188.037 664.975 194.836 664.975 202.538V309H622.296ZM802.798 312.655C791.322 312.655 780.987 310.611 771.79 306.524C762.673 302.358 755.442 296.228 750.097 288.132C744.831 280.036 742.198 270.054 742.198 258.186C742.198 247.968 744.085 239.519 747.857 232.838C751.63 226.157 756.778 220.812 763.302 216.804C769.826 212.795 777.174 209.769 785.349 207.726C793.602 205.604 802.13 204.071 810.933 203.128C821.543 202.027 830.15 201.045 836.752 200.18C843.354 199.237 848.149 197.822 851.136 195.936C854.201 193.971 855.734 190.945 855.734 186.858V186.151C855.734 177.269 853.101 170.392 847.835 165.518C842.568 160.645 834.984 158.209 825.08 158.209C814.627 158.209 806.335 160.488 800.204 165.047C794.152 169.606 790.065 174.99 787.942 181.199L748.093 175.54C751.237 164.536 756.424 155.34 763.656 147.952C770.887 140.485 779.729 134.904 790.183 131.21C800.636 127.438 812.19 125.551 824.844 125.551C833.569 125.551 842.254 126.573 850.9 128.616C859.546 130.66 867.445 134.04 874.597 138.756C881.75 143.393 887.487 149.72 891.81 157.737C896.212 165.754 898.413 175.776 898.413 187.801V309H857.384V284.124H855.969C853.376 289.154 849.721 293.87 845.005 298.271C840.368 302.594 834.512 306.092 827.438 308.764C820.443 311.358 812.229 312.655 802.798 312.655ZM813.88 281.294C822.447 281.294 829.875 279.604 836.163 276.224C842.451 272.766 847.284 268.207 850.664 262.548C854.122 256.889 855.852 250.719 855.852 244.038V222.699C854.515 223.799 852.236 224.821 849.013 225.764C845.87 226.707 842.333 227.533 838.403 228.24C834.473 228.947 830.582 229.576 826.731 230.126C822.88 230.677 819.539 231.148 816.71 231.541C810.343 232.406 804.645 233.821 799.614 235.786C794.584 237.75 790.615 240.501 787.707 244.038C784.799 247.497 783.344 251.977 783.344 257.479C783.344 265.339 786.213 271.273 791.951 275.281C797.689 279.29 804.998 281.294 813.88 281.294ZM1033.05 127.909V160.92H926.001V127.909H1033.05ZM952.763 309V110.814C952.763 98.6311 955.279 88.4919 960.309 80.3963C965.418 72.3007 972.256 66.2486 980.823 62.24C989.39 58.2315 998.901 56.2273 1009.35 56.2273C1016.74 56.2273 1023.31 56.8167 1029.04 57.9957C1034.78 59.1747 1039.03 60.2358 1041.78 61.179L1033.29 94.1903C1031.48 93.6401 1029.2 93.0899 1026.45 92.5398C1023.7 91.911 1020.63 91.5966 1017.25 91.5966C1009.32 91.5966 1003.7 93.5222 1000.39 97.3736C997.172 101.146 995.56 106.57 995.56 113.643V309H952.763ZM1156.9 127.909V160.92H1052.8V127.909H1156.9ZM1078.5 84.5227H1121.18V254.531C1121.18 260.269 1122.04 264.67 1123.77 267.736C1125.58 270.723 1127.94 272.766 1130.85 273.866C1133.76 274.967 1136.98 275.517 1140.52 275.517C1143.19 275.517 1145.62 275.321 1147.83 274.928C1150.1 274.535 1151.83 274.181 1153.01 273.866L1160.2 307.232C1157.93 308.018 1154.66 308.882 1150.42 309.825C1146.25 310.768 1141.14 311.319 1135.09 311.476C1124.4 311.79 1114.77 310.179 1106.21 306.642C1097.64 303.027 1090.84 297.446 1085.81 289.901C1080.86 282.355 1078.42 272.923 1078.5 261.605V84.5227ZM1192.6 309V127.909H1235.28V309H1192.6ZM1214.05 102.207C1207.29 102.207 1201.48 99.9673 1196.61 95.4872C1191.73 90.9285 1189.3 85.4659 1189.3 79.0994C1189.3 72.6543 1191.73 67.1917 1196.61 62.7116C1201.48 58.1529 1207.29 55.8736 1214.05 55.8736C1220.89 55.8736 1226.71 58.1529 1231.5 62.7116C1236.38 67.1917 1238.81 72.6543 1238.81 79.0994C1238.81 85.4659 1236.38 90.9285 1231.5 95.4872C1226.71 99.9673 1220.89 102.207 1214.05 102.207ZM1358.15 312.537C1340.08 312.537 1324.55 308.568 1311.59 300.629C1298.7 292.691 1288.75 281.726 1281.76 267.736C1274.84 253.667 1271.38 237.475 1271.38 219.162C1271.38 200.77 1274.92 184.539 1281.99 170.47C1289.07 156.322 1299.05 145.319 1311.94 137.459C1324.91 129.52 1340.23 125.551 1357.92 125.551C1372.62 125.551 1385.63 128.263 1396.94 133.686C1408.34 139.031 1417.42 146.616 1424.18 156.44C1430.94 166.187 1434.79 177.583 1435.73 190.631H1394.94C1393.29 181.906 1389.36 174.636 1383.15 168.82C1377.02 162.925 1368.8 159.977 1358.51 159.977C1349.78 159.977 1342.12 162.335 1335.52 167.051C1328.92 171.688 1323.77 178.369 1320.07 187.094C1316.46 195.818 1314.65 206.272 1314.65 218.455C1314.65 230.795 1316.46 241.405 1320.07 250.287C1323.69 259.09 1328.76 265.889 1335.28 270.683C1341.88 275.399 1349.63 277.757 1358.51 277.757C1364.8 277.757 1370.42 276.578 1375.37 274.22C1380.4 271.784 1384.6 268.286 1387.98 263.727C1391.36 259.169 1393.68 253.627 1394.94 247.104H1435.73C1434.71 259.915 1430.94 271.273 1424.41 281.176C1417.89 291.001 1409.01 298.704 1397.77 304.284C1386.53 309.786 1373.32 312.537 1358.15 312.537ZM1613.9 175.776L1575 180.02C1573.9 176.09 1571.97 172.396 1569.22 168.938C1566.55 165.479 1562.93 162.689 1558.37 160.567C1553.82 158.445 1548.24 157.384 1541.63 157.384C1532.75 157.384 1525.28 159.309 1519.23 163.161C1513.26 167.012 1510.31 172.003 1510.39 178.134C1510.31 183.4 1512.24 187.683 1516.17 190.984C1520.18 194.286 1526.78 196.997 1535.97 199.119L1566.86 205.722C1584 209.416 1596.73 215.271 1605.06 223.288C1613.47 231.305 1617.72 241.798 1617.8 254.767C1617.72 266.164 1614.38 276.224 1607.77 284.949C1601.25 293.595 1592.17 300.354 1580.54 305.227C1568.91 310.1 1555.55 312.537 1540.45 312.537C1518.29 312.537 1500.45 307.9 1486.93 298.625C1473.41 289.272 1465.35 276.264 1462.76 259.601L1504.38 255.592C1506.26 263.767 1510.27 269.937 1516.4 274.102C1522.53 278.268 1530.51 280.351 1540.34 280.351C1550.48 280.351 1558.61 278.268 1564.74 274.102C1570.95 269.937 1574.06 264.788 1574.06 258.658C1574.06 253.47 1572.05 249.187 1568.04 245.807C1564.11 242.427 1557.98 239.833 1549.65 238.026L1518.76 231.541C1501.39 227.926 1488.54 221.834 1480.21 213.267C1471.88 204.621 1467.75 193.696 1467.83 180.491C1467.75 169.33 1470.78 159.663 1476.91 151.489C1483.12 143.236 1491.72 136.869 1502.73 132.389C1513.81 127.83 1526.58 125.551 1541.04 125.551C1562.27 125.551 1578.97 130.071 1591.15 139.109C1603.41 148.148 1611 160.37 1613.9 175.776Z" fill="#1E1E1E"/>
</g>
<defs>
<clipPath id="clip0_78_2">
<rect width="1631" height="358" fill="white"/>
</clipPath>
</defs>
</svg>
