<svg width="1858" height="479" viewBox="0 0 1858 479" fill="none" xmlns="http://www.w3.org/2000/svg">
<g clip-path="url(#clip0_87_78)">
<path d="M510.753 223.311V184.931H631.35V223.311H510.753ZM539.977 309.229V193.113L541.146 190.97V121.613H590.631V297.734C590.631 311.242 592.385 319.879 595.892 323.646C599.398 327.412 604.983 329.295 612.646 329.295C616.023 329.295 619.206 329.101 622.193 328.711C625.18 328.191 628.038 327.347 630.765 326.178V362.416C627.518 363.455 622.712 364.429 616.348 365.338C610.114 366.377 602.321 366.896 592.969 366.896C575.955 366.896 562.836 362.545 553.615 353.843C544.523 345.011 539.977 330.14 539.977 309.229ZM662.709 363V184.931H714.532V209.868H714.727C719.922 201.556 726.611 194.802 734.793 189.606C742.976 184.281 752.522 181.619 763.433 181.619C766.939 181.619 770.381 181.878 773.758 182.398C777.135 182.788 779.473 183.242 780.772 183.762V222.532C778.434 221.752 775.577 221.168 772.2 220.778C768.823 220.259 765.121 219.999 761.095 219.999C752.393 219.999 743.82 222.856 735.378 228.571C727.065 234.156 720.441 241.625 715.506 250.976V363H662.709ZM791.285 312.151C791.285 294.617 798.233 280.589 812.131 270.069C826.028 259.418 844.667 254.093 868.045 254.093H912.855V240.456C912.855 230.844 910.452 223.636 905.647 218.83C900.971 213.895 893.308 211.427 882.657 211.427C872.267 211.427 864.279 213.57 858.694 217.856C853.109 222.012 850.316 228.117 850.316 236.169V240.456L802.585 240.261V234.611C802.585 218.635 809.988 205.647 824.794 195.646C839.731 185.515 860.188 180.45 886.164 180.45C912.141 180.45 931.688 185.255 944.806 194.867C957.924 204.478 964.483 220.259 964.483 242.209V319.944C964.483 327.737 965.068 335.14 966.237 342.154C967.406 349.038 969.289 355.012 971.887 360.078V363H921.427C919.479 359.753 917.855 355.856 916.557 351.311C915.388 346.635 914.543 341.829 914.024 336.894C909.608 344.167 902.14 350.791 891.619 356.766C881.099 362.61 867.786 365.533 851.68 365.533C832.847 365.533 818.041 360.987 807.26 351.895C796.61 342.803 791.285 329.555 791.285 312.151ZM842.134 308.839C842.134 317.541 844.667 324.1 849.732 328.516C854.927 332.932 862.331 335.14 871.942 335.14C882.203 335.14 891.554 331.503 899.997 324.23C908.569 316.957 912.855 308.774 912.855 299.682V281.758H883.826C869.669 281.758 859.148 283.966 852.265 288.382C845.511 292.668 842.134 299.487 842.134 308.839ZM1020.39 363V150.057C1020.39 125.509 1027.14 106.871 1040.65 94.1426C1054.29 81.4141 1072.93 75.0498 1096.57 75.0498C1101.5 75.0498 1106.11 75.3745 1110.4 76.0239C1114.69 76.6733 1119.1 77.4526 1123.65 78.3618L1121.11 116.937C1118.78 116.547 1116.11 116.093 1113.13 115.573C1110.14 114.924 1106.83 114.599 1103.19 114.599C1092.8 114.599 1084.81 117.911 1079.23 124.535C1073.64 131.029 1070.85 141.81 1070.85 156.876V193.893L1071.43 195.841V363H1020.39ZM990.582 223.311V184.931H1031.11H1034.81H1108.26V223.311H990.582ZM1117.4 223.311V184.931H1238V223.311H1117.4ZM1146.63 309.229V193.113L1147.8 190.97V121.613H1197.28V297.734C1197.28 311.242 1199.04 319.879 1202.54 323.646C1206.05 327.412 1211.63 329.295 1219.3 329.295C1222.67 329.295 1225.86 329.101 1228.84 328.711C1231.83 328.191 1234.69 327.347 1237.42 326.178V362.416C1234.17 363.455 1229.36 364.429 1223 365.338C1216.77 366.377 1208.97 366.896 1199.62 366.896C1182.61 366.896 1169.49 362.545 1160.27 353.843C1151.17 345.011 1146.63 330.14 1146.63 309.229ZM1270.14 363V184.931H1322.55V363H1270.14ZM1266.44 120.054C1266.44 112.391 1269.04 105.897 1274.23 100.572C1279.43 95.2466 1286.83 92.584 1296.44 92.584C1306.05 92.584 1313.39 95.1816 1318.46 100.377C1323.52 105.572 1326.05 112.131 1326.05 120.054C1326.05 127.717 1323.46 134.276 1318.26 139.731C1313.07 145.187 1305.66 147.914 1296.05 147.914C1286.44 147.914 1279.1 145.187 1274.04 139.731C1268.97 134.276 1266.44 127.717 1266.44 120.054ZM1358 276.693V270.264C1358 241.949 1366.18 219.804 1382.55 203.829C1398.91 187.853 1420.93 179.865 1448.59 179.865C1476.26 179.865 1497.43 185.97 1512.1 198.179C1526.78 210.388 1534.44 227.727 1535.09 250.197V253.898H1485.02V251.366C1485.02 240.715 1482.04 232.468 1476.06 226.623C1470.22 220.648 1461.64 217.661 1450.34 217.661C1437.62 217.661 1427.74 222.012 1420.73 230.714C1413.72 239.287 1410.21 252.015 1410.21 268.9V278.057C1410.21 294.032 1413.65 306.696 1420.54 316.047C1427.42 325.399 1437.29 330.075 1450.15 330.075C1461.71 330.075 1470.48 327.087 1476.45 321.113C1482.42 315.138 1485.48 306.761 1485.61 295.98V293.253H1535.48L1535.29 297.149C1535.03 319.229 1527.43 336.439 1512.49 348.778C1497.69 361.117 1476.52 367.286 1448.98 367.286C1421.32 367.286 1399.23 359.233 1382.74 343.128C1366.24 326.893 1358 304.748 1358 276.693ZM1564.11 305.917L1609.9 306.306V310.397C1609.9 320.269 1613.01 327.217 1619.25 331.244C1625.48 335.14 1633.93 337.088 1644.58 337.088C1655.1 337.088 1662.95 335.4 1668.15 332.023C1673.34 328.646 1675.94 323.386 1675.94 316.242C1675.94 309.488 1672.83 304.358 1666.59 300.851C1660.36 297.344 1648.99 293.772 1632.5 290.136C1610.16 285.59 1593.86 278.901 1583.6 270.069C1573.46 261.237 1568.4 248.898 1568.4 233.052C1568.4 216.038 1575.22 202.919 1588.86 193.698C1602.62 184.476 1621.59 179.865 1645.74 179.865C1669.64 179.865 1688.41 184.671 1702.05 194.282C1715.82 203.764 1722.7 217.531 1722.7 235.585V239.676H1676.92V235.78C1676.92 226.688 1674.06 220.389 1668.34 216.882C1662.76 213.245 1654.84 211.427 1644.58 211.427C1635.35 211.427 1628.47 212.92 1623.92 215.908C1619.38 218.895 1617.11 223.571 1617.11 229.935C1617.11 235.52 1620.09 240.001 1626.07 243.378C1632.17 246.755 1643.34 250.197 1659.58 253.704C1682.7 258.379 1699.78 264.938 1710.82 273.381C1721.86 281.823 1727.38 293.643 1727.38 308.839C1727.38 327.932 1720.43 342.479 1706.53 352.479C1692.76 362.351 1672.5 367.286 1645.74 367.286C1619.64 367.286 1599.57 362.351 1585.54 352.479C1571.65 342.479 1564.5 328.256 1564.11 309.813V305.917Z" fill="#1E1E1E"/>
<rect x="218.391" y="171.733" width="142" height="222" rx="12" transform="rotate(33.1338 218.391 171.733)" stroke="#3B82F6" stroke-width="8"/>
<path d="M363.433 86.206L387.7 311.209C388.044 314.398 384.275 316.331 381.885 314.192L274.786 218.305C274.446 218.001 274.061 217.75 273.646 217.561L142.763 158.109C139.843 156.783 140.097 152.555 143.154 151.586L358.896 83.2447C361.004 82.5769 363.196 84.0073 363.433 86.206Z" fill="#3B82F6" stroke="#3B82F6"/>
<path d="M375.144 58.3609C377.248 57.6989 379.432 59.1248 379.673 61.3175L411.93 355.051C412.28 358.241 408.51 360.182 406.118 358.042L266.505 233.194C265.563 232.352 264.499 231.657 263.349 231.134L92.8686 153.574C89.9473 152.245 90.206 148.013 93.2675 147.05L375.144 58.3609Z" stroke="#3B82F6" stroke-width="9"/>
<rect x="234.121" y="177.821" width="111" height="210" rx="5.5" transform="rotate(33.1338 234.121 177.821)" fill="#3B82F6" stroke="#3B82F6"/>
</g>
<defs>
<clipPath id="clip0_87_78">
<rect width="1858" height="479" fill="white"/>
</clipPath>
</defs>
</svg>
